<?xml version="1.0" ?>
<!-- Uploaded to: SVG Repo, www.svgrepo.com, Generator: SVG Repo Mixer Tools -->
<svg fill="#000000" width="800px" height="800px" viewBox="0 0 128 128" xmlns="http://www.w3.org/2000/svg">
<title/>
<g id="Grid">
<path d="M82.38,113.13H44.62a10.46,10.46,0,0,1-10.44-10.45V80.38a21.38,21.38,0,0,1,5.48-42,21,21,0,0,1,2.63.17,21.14,21.14,0,0,1-.16-2.64,21.37,21.37,0,0,1,42.74,0,21.14,21.14,0,0,1-.16,2.64,21,21,0,0,1,2.63-.17,21.38,21.38,0,0,1,5.48,42v22.3A10.46,10.46,0,0,1,82.38,113.13ZM39.66,41.34A18.38,18.38,0,0,0,36,77.72a1.49,1.49,0,0,1,1.2,1.47v23.49a7.45,7.45,0,0,0,7.44,7.45H82.38a7.45,7.45,0,0,0,7.44-7.45V79.19A1.49,1.49,0,0,1,91,77.72a18.38,18.38,0,0,0-3.68-36.38,18,18,0,0,0-4.14.48A1.5,1.5,0,0,1,81.39,40a18,18,0,0,0,.48-4.15,18.37,18.37,0,0,0-36.74,0A18,18,0,0,0,45.61,40a1.5,1.5,0,0,1-1.81,1.8A18,18,0,0,0,39.66,41.34Z"/>
<path d="M92.64,119.5H34.36a1.5,1.5,0,0,1,0-3H92.64a1.5,1.5,0,0,1,0,3Z"/>
<path d="M67.47,105.18a1.51,1.51,0,0,1-1.5-1.5V71.88a1.5,1.5,0,0,1,3,0v31.8A1.5,1.5,0,0,1,67.47,105.18Z"/>
<path d="M75.42,105.18a1.5,1.5,0,0,1-1.5-1.5V87.78a1.5,1.5,0,0,1,3,0v15.9A1.5,1.5,0,0,1,75.42,105.18Z"/>
</g>
</svg>