<svg width="20" height="20" viewBox="0 0 20 20" fill="none" xmlns="http://www.w3.org/2000/svg">
<path d="M19.9846 8.10724C20.0845 7.60677 19.6848 7.0062 19.1852 7.0062L13.4896 6.20544L10.8916 1.00051C10.7917 0.800323 10.6918 0.700228 10.4919 0.600133C9.99229 0.299849 9.39276 0.500038 9.09299 1.00051L6.59491 6.20544L0.899306 7.0062C0.599538 7.0062 0.399692 7.1063 0.299769 7.30649C-0.0999229 7.70687 -0.0999229 8.30743 0.299769 8.70781L4.39661 12.7116L3.39738 18.417C3.39738 18.6172 3.39738 18.8174 3.4973 19.0176C3.79707 19.5181 4.39661 19.7182 4.89622 19.418L9.99229 16.7154L15.0884 19.418C15.1883 19.5181 15.3881 19.5181 15.588 19.5181C15.6879 19.5181 15.6879 19.5181 15.7878 19.5181C16.2874 19.418 16.6871 18.9175 16.5872 18.3169L15.588 12.6115L19.6848 8.60772C19.8847 8.50762 19.9846 8.30743 19.9846 8.10724Z" fill="#CC7700"/>
</svg>
