<svg width="20" height="20" viewBox="0 0 20 20" fill="none" xmlns="http://www.w3.org/2000/svg">
<path d="M19.9946 7.93286C20.0347 7.65949 19.8456 7.40534 19.5722 7.36524L13.2675 6.44629L10.4482 0.7168C10.4034 0.640628 10.3399 0.577091 10.2637 0.532291C10.0161 0.386661 9.69734 0.469241 9.55171 0.7168L6.73237 6.44629L0.427687 7.36524C0.319411 7.38111 0.219313 7.43207 0.142775 7.51026C-0.0505234 7.70771 -0.0471055 8.02448 0.150343 8.21778L4.71284 12.6787L3.63569 18.9785C3.61738 19.0867 3.63515 19.1979 3.68629 19.295C3.81496 19.5396 4.11763 19.6336 4.36226 19.5049L9.99995 16.5322L15.6376 19.5049C15.7097 19.5425 15.7897 19.5623 15.871 19.5625C15.8989 19.5625 15.9266 19.5602 15.9541 19.5555C16.2266 19.5095 16.4103 19.2511 16.3642 18.9785L15.2871 12.6787L19.8496 8.21778C19.9277 8.14124 19.9787 8.04114 19.9946 7.93286ZM14.4003 12.1474C14.2832 12.2622 14.2295 12.4271 14.2568 12.5888L15.207 18.1474L10.2334 15.5244C10.1613 15.4868 10.0813 15.467 9.99995 15.4668C9.91865 15.467 9.83864 15.4868 9.76655 15.5245L4.79298 18.1475L5.74312 12.5889C5.7704 12.4271 5.71675 12.2623 5.59956 12.1475L1.57222 8.20899L7.13667 7.39844C7.29945 7.37427 7.44002 7.27167 7.51265 7.12403L9.99995 2.07032L12.4873 7.12403C12.5599 7.27173 12.7005 7.37433 12.8632 7.39844L18.4277 8.20899L14.4003 12.1474Z" fill="#CC7700"/>
</svg>
